<svg width="548" height="560" viewBox="0 0 548 560" fill="none" xmlns="http://www.w3.org/2000/svg">
<rect x="0.596685" y="58.5967" width="442.74" height="280.442" rx="21.0635" stroke="url(#paint0_linear_322_11)" stroke-width="1.19337"/>
<rect x="340" y="202" width="123" height="151" fill="#EEEAFA"/>
<rect x="156.832" y="69.2414" width="135.042" height="12.1246" rx="6.06232" stroke="url(#paint1_linear_322_11)" stroke-width="1.00243"/>
<rect x="195.995" y="176.426" width="51.9432" height="51.9432" rx="25.9716" stroke="#A484FF" stroke-width="0.565478"/>
<rect x="203.4" y="183.158" width="37.8063" height="37.8063" rx="18.9031" stroke="#A484FF" stroke-width="0.565478"/>
<g filter="url(#filter0_d_322_11)">
<path d="M221.388 189.161C217.063 186.207 211.196 189.305 211.196 194.543V209.774C211.196 215.012 217.063 218.109 221.388 215.155L232.539 207.54C236.328 204.952 236.328 199.364 232.539 196.777L221.388 189.161Z" fill="#704ECD"/>
<path d="M212.418 209.774V194.543C212.418 190.287 217.185 187.77 220.699 190.17L231.85 197.786C234.929 199.888 234.929 204.429 231.85 206.531L220.699 214.146C217.185 216.546 212.418 214.03 212.418 209.774Z" stroke="white" stroke-width="2.44374"/>
</g>
<rect x="110.983" y="116.476" width="220.773" height="14.3204" rx="7.16022" fill="url(#paint2_linear_322_11)"/>
<rect x="127.69" y="137.956" width="187.359" height="4.77348" rx="2.38674" fill="url(#paint3_linear_322_11)"/>
<rect x="162.298" y="73.5137" width="77.5691" height="3.58011" rx="1.79006" fill="url(#paint4_linear_322_11)"/>
<rect x="155.138" y="149.89" width="132.464" height="4.77348" rx="2.38674" fill="url(#paint5_linear_322_11)" fill-opacity="0.4"/>
<rect x="204.065" y="284.74" width="41.768" height="1.19337" rx="0.596685" fill="url(#paint6_linear_322_11)"/>
<circle cx="190.939" cy="307.414" r="8.35359" fill="#704ECD"/>
<circle cx="213.612" cy="307.414" r="8.35359" fill="#704ECD"/>
<circle cx="236.287" cy="307.414" r="8.35359" fill="#704ECD"/>
<circle cx="258.961" cy="307.414" r="8.35359" fill="#704ECD"/>
<rect x="340" y="202" width="158" height="157"/>
<rect x="340.597" y="202.597" width="206.463" height="356.643" rx="16.2295" stroke="url(#paint7_linear_322_11)" stroke-width="1.19337"/>
<rect x="430.776" y="519.898" width="25.2161" height="25.2161" rx="12.6081" stroke="url(#paint8_linear_322_11)" stroke-width="1.70575"/>
<rect x="401.574" y="345.153" width="71.5303" height="71.5303" rx="35.7651" stroke="#A484FF" stroke-width="0.778712"/>
<rect x="411.771" y="354.423" width="52.0625" height="52.0625" rx="26.0312" stroke="#A484FF" stroke-width="0.778712"/>
<line x1="360.66" y1="226.763" x2="376.818" y2="226.763" stroke="url(#paint9_linear_322_11)" stroke-width="13.5069" stroke-linecap="round"/>
<g filter="url(#filter1_d_322_11)">
<path d="M436.541 362.69C430.584 358.622 422.506 362.888 422.506 370.101V391.075C422.506 398.288 430.584 402.554 436.541 398.486L451.897 387.999C457.114 384.436 457.114 376.741 451.897 373.178L436.541 362.69Z" fill="#704ECD"/>
<path d="M424.188 370.101C424.188 364.24 430.752 360.775 435.592 364.08L450.948 374.567C455.187 377.462 455.187 383.714 450.948 386.609L435.592 397.097C430.752 400.402 424.188 396.936 424.188 391.075V370.101Z" stroke="white" stroke-width="3.36524"/>
</g>
<rect x="368.641" y="287.747" width="147.978" height="14.3204" rx="7.16022" fill="url(#paint10_linear_322_11)"/>
<rect x="379.381" y="309.229" width="126.497" height="4.77348" rx="2.38674" fill="url(#paint11_linear_322_11)"/>
<rect x="398.475" y="321.162" width="88.3094" height="4.77348" rx="2.38674" fill="url(#paint12_linear_322_11)" fill-opacity="0.67"/>
<rect x="0.615779" y="353.616" width="323.768" height="127.768" rx="21.7376" stroke="url(#paint13_linear_322_11)" stroke-width="1.23156"/>
<rect x="42" y="394" width="232" height="14" rx="7" fill="url(#paint14_linear_322_11)"/>
<rect x="42" y="415" width="190" height="8" rx="4" fill="url(#paint15_linear_322_11)"/>
<rect x="42" y="429" width="175" height="5" rx="2.5" fill="url(#paint16_linear_322_11)" fill-opacity="0.54"/>
<rect x="42" y="440" width="112" height="2" rx="1" fill="url(#paint17_linear_322_11)"/>
<rect x="236.292" y="369.292" width="54.4164" height="53.4164" rx="26.7082" stroke="#A484FF" stroke-width="0.583573"/>
<rect x="244.292" y="376.292" width="39.4164" height="39.4164" rx="19.7082" stroke="#A484FF" stroke-width="0.583573"/>
<g filter="url(#filter2_d_322_11)">
<path d="M262.435 381.9C257.964 378.944 252 382.15 252 387.51V403.49C252 408.85 257.964 412.056 262.435 409.1L274.517 401.11C278.538 398.451 278.538 392.549 274.517 389.89L262.435 381.9Z" fill="#704ECD"/>
<path d="M253.261 403.49V387.51C253.261 383.155 258.107 380.55 261.739 382.952L273.822 390.942C277.089 393.103 277.089 397.897 273.822 400.058L261.739 408.048C258.107 410.45 253.261 407.845 253.261 403.49Z" stroke="white" stroke-width="2.52194"/>
</g>
<path d="M213.669 512.057V525.28" stroke="url(#paint18_linear_322_11)" stroke-width="0.944533" stroke-linecap="round"/>
<path d="M222.171 506.39V530.947" stroke="url(#paint19_linear_322_11)" stroke-width="0.944533" stroke-linecap="round"/>
<path d="M196.668 512.057V525.28" stroke="url(#paint20_linear_322_11)" stroke-width="0.944533" stroke-linecap="round"/>
<path d="M230.671 513.002V524.336" stroke="url(#paint21_linear_322_11)" stroke-width="0.944533" stroke-linecap="round"/>
<path d="M205.168 499.777V537.559" stroke="url(#paint22_linear_322_11)" stroke-width="0.944533" stroke-linecap="round"/>
<path d="M259.002 512.69V525.914" stroke="url(#paint23_linear_322_11)" stroke-width="0.944533" stroke-linecap="round"/>
<path d="M267.502 507.024V531.582" stroke="url(#paint24_linear_322_11)" stroke-width="0.944533" stroke-linecap="round"/>
<path d="M242 512.691V525.915" stroke="url(#paint25_linear_322_11)" stroke-width="0.944533" stroke-linecap="round"/>
<path d="M276.003 513.636V524.97" stroke="url(#paint26_linear_322_11)" stroke-width="0.944533" stroke-linecap="round"/>
<path d="M250.501 500.412V538.193" stroke="url(#paint27_linear_322_11)" stroke-width="0.944533" stroke-linecap="round"/>
<path d="M292.06 513.152V526.376" stroke="url(#paint28_linear_322_11)" stroke-width="0.944533" stroke-linecap="round"/>
<path d="M300.56 507.485V532.043" stroke="url(#paint29_linear_322_11)" stroke-width="0.944533" stroke-linecap="round"/>
<path d="M309.061 516.931V522.598" stroke="url(#paint30_linear_322_11)" stroke-width="0.944533" stroke-linecap="round"/>
<path d="M282.613 506.541V532.988" stroke="url(#paint31_linear_322_11)" stroke-width="0.944533" stroke-linecap="round"/>
<path d="M444.665 58.02C439.12 45.5701 444.718 30.9826 457.167 25.4378C469.617 19.893 484.205 25.4907 489.75 37.9405C493.869 47.1897 491.254 56.8773 488.518 65.5028C486.218 72.7563 489.249 84.473 477.977 89.4929C474.352 91.1076 470.472 91.3993 466.88 90.576" stroke="url(#paint32_linear_322_11)" stroke-width="0.697679" stroke-linecap="square"/>
<path d="M457.546 52.2831C455.17 46.9475 457.568 40.6957 462.904 38.3193C468.24 35.9429 474.492 38.342 476.868 43.6776C477.97 46.1522 478.045 48.8233 477.276 51.214" stroke="url(#paint33_linear_322_11)" stroke-width="0.697679" stroke-linecap="square"/>
<defs>
<filter id="filter0_d_322_11" x="208.147" y="184.541" width="33.6092" height="37.7117" filterUnits="userSpaceOnUse" color-interpolation-filters="sRGB">
<feFlood flood-opacity="0" result="BackgroundImageFix"/>
<feColorMatrix in="SourceAlpha" type="matrix" values="0 0 0 0 0 0 0 0 0 0 0 0 0 0 0 0 0 0 127 0" result="hardAlpha"/>
<feOffset dx="1.66278" dy="1.23867"/>
<feGaussianBlur stdDeviation="2.35616"/>
<feComposite in2="hardAlpha" operator="out"/>
<feColorMatrix type="matrix" values="0 0 0 0 0.843879 0 0 0 0 0.834549 0 0 0 0 0.870833 0 0 0 1 0"/>
<feBlend mode="normal" in2="BackgroundImageFix" result="effect1_dropShadow_322_11"/>
<feBlend mode="normal" in="SourceGraphic" in2="effect1_dropShadow_322_11" result="shape"/>
</filter>
<filter id="filter1_d_322_11" x="418.306" y="356.328" width="46.2822" height="51.9317" filterUnits="userSpaceOnUse" color-interpolation-filters="sRGB">
<feFlood flood-opacity="0" result="BackgroundImageFix"/>
<feColorMatrix in="SourceAlpha" type="matrix" values="0 0 0 0 0 0 0 0 0 0 0 0 0 0 0 0 0 0 127 0" result="hardAlpha"/>
<feOffset dx="2.28978" dy="1.70575"/>
<feGaussianBlur stdDeviation="3.24463"/>
<feComposite in2="hardAlpha" operator="out"/>
<feColorMatrix type="matrix" values="0 0 0 0 0.843879 0 0 0 0 0.834549 0 0 0 0 0.870833 0 0 0 1 0"/>
<feBlend mode="normal" in2="BackgroundImageFix" result="effect1_dropShadow_322_11"/>
<feBlend mode="normal" in="SourceGraphic" in2="effect1_dropShadow_322_11" result="shape"/>
</filter>
<filter id="filter2_d_322_11" x="248.853" y="377.189" width="35.2594" height="39.1793" filterUnits="userSpaceOnUse" color-interpolation-filters="sRGB">
<feFlood flood-opacity="0" result="BackgroundImageFix"/>
<feColorMatrix in="SourceAlpha" type="matrix" values="0 0 0 0 0 0 0 0 0 0 0 0 0 0 0 0 0 0 127 0" result="hardAlpha"/>
<feOffset dx="1.71598" dy="1.2783"/>
<feGaussianBlur stdDeviation="2.43156"/>
<feComposite in2="hardAlpha" operator="out"/>
<feColorMatrix type="matrix" values="0 0 0 0 0.843879 0 0 0 0 0.834549 0 0 0 0 0.870833 0 0 0 1 0"/>
<feBlend mode="normal" in2="BackgroundImageFix" result="effect1_dropShadow_322_11"/>
<feBlend mode="normal" in="SourceGraphic" in2="effect1_dropShadow_322_11" result="shape"/>
</filter>
<linearGradient id="paint0_linear_322_11" x1="30.6375" y1="98.1837" x2="282.337" y2="444.502" gradientUnits="userSpaceOnUse">
<stop stop-color="#5B38B0"/>
<stop offset="1" stop-color="#8E77CC"/>
</linearGradient>
<linearGradient id="paint1_linear_322_11" x1="165.72" y1="70.6132" x2="168.414" y2="94.9838" gradientUnits="userSpaceOnUse">
<stop stop-color="#5B38B0"/>
<stop offset="1" stop-color="#8E77CC"/>
</linearGradient>
<linearGradient id="paint2_linear_322_11" x1="110.983" y1="123.636" x2="329.37" y2="123.636" gradientUnits="userSpaceOnUse">
<stop stop-color="#886ADB"/>
<stop offset="1" stop-color="#CCC0F1"/>
</linearGradient>
<linearGradient id="paint3_linear_322_11" x1="127.69" y1="140.343" x2="313.024" y2="140.343" gradientUnits="userSpaceOnUse">
<stop stop-color="#886ADB"/>
<stop offset="1" stop-color="#CCC0F1"/>
</linearGradient>
<linearGradient id="paint4_linear_322_11" x1="162.298" y1="75.3037" x2="239.028" y2="75.3037" gradientUnits="userSpaceOnUse">
<stop stop-color="#886ADB"/>
<stop offset="1" stop-color="#CCC0F1"/>
</linearGradient>
<linearGradient id="paint5_linear_322_11" x1="155.138" y1="152.276" x2="286.17" y2="152.276" gradientUnits="userSpaceOnUse">
<stop stop-color="#7F65C7"/>
<stop offset="1" stop-color="#CBB8FF"/>
</linearGradient>
<linearGradient id="paint6_linear_322_11" x1="204.065" y1="285.337" x2="245.382" y2="285.337" gradientUnits="userSpaceOnUse">
<stop stop-color="#7F65C7"/>
<stop offset="1" stop-color="#CBB8FF"/>
</linearGradient>
<linearGradient id="paint7_linear_322_11" x1="354.331" y1="253.056" x2="625.405" y2="390.369" gradientUnits="userSpaceOnUse">
<stop stop-color="#5B38B0"/>
<stop offset="1" stop-color="#8E77CC"/>
</linearGradient>
<linearGradient id="paint8_linear_322_11" x1="431.781" y1="522.886" x2="456.845" y2="544.764" gradientUnits="userSpaceOnUse">
<stop stop-color="#5B38B0"/>
<stop offset="1" stop-color="#8E77CC"/>
</linearGradient>
<linearGradient id="paint9_linear_322_11" x1="353.906" y1="233.517" x2="354.011" y2="235.808" gradientUnits="userSpaceOnUse">
<stop stop-color="#7E64C7"/>
<stop offset="1" stop-color="#210869"/>
</linearGradient>
<linearGradient id="paint10_linear_322_11" x1="368.641" y1="294.907" x2="515.019" y2="294.907" gradientUnits="userSpaceOnUse">
<stop stop-color="#886ADB"/>
<stop offset="1" stop-color="#CCC0F1"/>
</linearGradient>
<linearGradient id="paint11_linear_322_11" x1="379.381" y1="311.615" x2="504.511" y2="311.615" gradientUnits="userSpaceOnUse">
<stop stop-color="#886ADB"/>
<stop offset="1" stop-color="#CCC0F1"/>
</linearGradient>
<linearGradient id="paint12_linear_322_11" x1="398.475" y1="323.549" x2="485.829" y2="323.549" gradientUnits="userSpaceOnUse">
<stop stop-color="#7F65C7"/>
<stop offset="1" stop-color="#CBB8FF"/>
</linearGradient>
<linearGradient id="paint13_linear_322_11" x1="22.4295" y1="371.406" x2="113.774" y2="572.287" gradientUnits="userSpaceOnUse">
<stop stop-color="#5B38B0"/>
<stop offset="1" stop-color="#8E77CC"/>
</linearGradient>
<linearGradient id="paint14_linear_322_11" x1="42" y1="401" x2="271.492" y2="401" gradientUnits="userSpaceOnUse">
<stop stop-color="#886ADB"/>
<stop offset="1" stop-color="#CCC0F1"/>
</linearGradient>
<linearGradient id="paint15_linear_322_11" x1="42" y1="419" x2="229.946" y2="419" gradientUnits="userSpaceOnUse">
<stop stop-color="#886ADB"/>
<stop offset="1" stop-color="#CCC0F1"/>
</linearGradient>
<linearGradient id="paint16_linear_322_11" x1="42" y1="431.5" x2="215.108" y2="431.5" gradientUnits="userSpaceOnUse">
<stop stop-color="#7F65C7"/>
<stop offset="1" stop-color="#CBB8FF"/>
</linearGradient>
<linearGradient id="paint17_linear_322_11" x1="42" y1="441" x2="152.789" y2="441" gradientUnits="userSpaceOnUse">
<stop stop-color="#7F65C7"/>
<stop offset="1" stop-color="#CBB8FF"/>
</linearGradient>
<linearGradient id="paint18_linear_322_11" x1="213.669" y1="512.057" x2="215.349" y2="512.15" gradientUnits="userSpaceOnUse">
<stop stop-color="#7E64C7"/>
<stop offset="1" stop-color="#210869"/>
</linearGradient>
<linearGradient id="paint19_linear_322_11" x1="222.171" y1="506.39" x2="223.854" y2="506.44" gradientUnits="userSpaceOnUse">
<stop stop-color="#7E64C7"/>
<stop offset="1" stop-color="#210869"/>
</linearGradient>
<linearGradient id="paint20_linear_322_11" x1="196.668" y1="512.057" x2="198.348" y2="512.15" gradientUnits="userSpaceOnUse">
<stop stop-color="#7E64C7"/>
<stop offset="1" stop-color="#210869"/>
</linearGradient>
<linearGradient id="paint21_linear_322_11" x1="230.671" y1="513.002" x2="232.349" y2="513.111" gradientUnits="userSpaceOnUse">
<stop stop-color="#7E64C7"/>
<stop offset="1" stop-color="#210869"/>
</linearGradient>
<linearGradient id="paint22_linear_322_11" x1="205.168" y1="499.777" x2="206.852" y2="499.81" gradientUnits="userSpaceOnUse">
<stop stop-color="#7E64C7"/>
<stop offset="1" stop-color="#210869"/>
</linearGradient>
<linearGradient id="paint23_linear_322_11" x1="259.002" y1="512.69" x2="260.682" y2="512.784" gradientUnits="userSpaceOnUse">
<stop stop-color="#7E64C7"/>
<stop offset="1" stop-color="#210869"/>
</linearGradient>
<linearGradient id="paint24_linear_322_11" x1="267.502" y1="507.024" x2="269.185" y2="507.075" gradientUnits="userSpaceOnUse">
<stop stop-color="#7E64C7"/>
<stop offset="1" stop-color="#210869"/>
</linearGradient>
<linearGradient id="paint25_linear_322_11" x1="242" y1="512.691" x2="243.68" y2="512.785" gradientUnits="userSpaceOnUse">
<stop stop-color="#7E64C7"/>
<stop offset="1" stop-color="#210869"/>
</linearGradient>
<linearGradient id="paint26_linear_322_11" x1="276.003" y1="513.636" x2="277.681" y2="513.744" gradientUnits="userSpaceOnUse">
<stop stop-color="#7E64C7"/>
<stop offset="1" stop-color="#210869"/>
</linearGradient>
<linearGradient id="paint27_linear_322_11" x1="250.501" y1="500.412" x2="252.185" y2="500.445" gradientUnits="userSpaceOnUse">
<stop stop-color="#7E64C7"/>
<stop offset="1" stop-color="#210869"/>
</linearGradient>
<linearGradient id="paint28_linear_322_11" x1="292.06" y1="513.152" x2="293.739" y2="513.246" gradientUnits="userSpaceOnUse">
<stop stop-color="#7E64C7"/>
<stop offset="1" stop-color="#210869"/>
</linearGradient>
<linearGradient id="paint29_linear_322_11" x1="300.56" y1="507.485" x2="302.243" y2="507.536" gradientUnits="userSpaceOnUse">
<stop stop-color="#7E64C7"/>
<stop offset="1" stop-color="#210869"/>
</linearGradient>
<linearGradient id="paint30_linear_322_11" x1="309.061" y1="516.931" x2="310.718" y2="517.145" gradientUnits="userSpaceOnUse">
<stop stop-color="#7E64C7"/>
<stop offset="1" stop-color="#210869"/>
</linearGradient>
<linearGradient id="paint31_linear_322_11" x1="282.613" y1="506.541" x2="284.297" y2="506.588" gradientUnits="userSpaceOnUse">
<stop stop-color="#7E64C7"/>
<stop offset="1" stop-color="#210869"/>
</linearGradient>
<linearGradient id="paint32_linear_322_11" x1="441.625" y1="42.8219" x2="508.923" y2="53.1704" gradientUnits="userSpaceOnUse">
<stop stop-color="#5B38B0"/>
<stop offset="1" stop-color="#8E77CC"/>
</linearGradient>
<linearGradient id="paint33_linear_322_11" x1="455.6" y1="44.3256" x2="477.763" y2="53.4252" gradientUnits="userSpaceOnUse">
<stop stop-color="#5B38B0"/>
<stop offset="1" stop-color="#8E77CC"/>
</linearGradient>
</defs>
</svg>
