<svg width="100%" height="100%" viewBox="0 0 261 209" fill="none" xmlns="http://www.w3.org/2000/svg">
<rect x="0.5" y="0.5" width="260" height="208" rx="23.5" stroke="url(#paint0_linear_321_2)"/>
<line x1="97.315" y1="162.685" x2="164.085" y2="162.685" stroke="url(#paint1_linear_321_2)" stroke-width="2.63" stroke-linecap="round"/>
<rect x="72.5" y="113.5" width="118" height="31" rx="15.5" stroke="url(#paint2_linear_321_2)"/>
<path d="M102.333 132.601C101.972 133.119 101.466 133.507 100.817 133.766C100.172 134.02 99.4204 134.146 98.561 134.146C97.6919 134.146 96.9204 133.944 96.2466 133.539C95.5728 133.128 95.0503 132.547 94.6792 131.795C94.313 131.043 94.125 130.172 94.1152 129.181V128.25C94.1152 126.644 94.4888 125.399 95.2358 124.515C95.9878 123.631 97.0425 123.189 98.3999 123.189C99.5132 123.189 100.409 123.475 101.088 124.046C101.767 124.613 102.182 125.418 102.333 126.463H100.927C100.663 125.052 99.8232 124.347 98.4072 124.347C97.4648 124.347 96.7495 124.679 96.2612 125.343C95.7778 126.002 95.5337 126.959 95.5288 128.214V129.085C95.5288 130.282 95.8022 131.234 96.3491 131.942C96.896 132.645 97.6357 132.997 98.5684 132.997C99.0957 132.997 99.5571 132.938 99.9526 132.821C100.348 132.704 100.675 132.506 100.934 132.228V129.833H98.4658V128.69H102.333V132.601ZM107.76 134.146C106.686 134.146 105.812 133.795 105.138 133.092C104.464 132.384 104.127 131.439 104.127 130.257V130.008C104.127 129.222 104.276 128.521 104.574 127.906C104.877 127.286 105.297 126.803 105.834 126.456C106.376 126.104 106.962 125.929 107.592 125.929C108.622 125.929 109.423 126.268 109.994 126.947C110.565 127.625 110.851 128.597 110.851 129.862V130.426H105.482C105.502 131.207 105.729 131.839 106.164 132.323C106.603 132.801 107.16 133.041 107.833 133.041C108.312 133.041 108.717 132.943 109.049 132.748C109.381 132.552 109.672 132.293 109.921 131.971L110.749 132.616C110.084 133.636 109.088 134.146 107.76 134.146ZM107.592 127.042C107.045 127.042 106.586 127.242 106.215 127.643C105.844 128.038 105.614 128.595 105.526 129.312H109.496V129.21C109.457 128.521 109.271 127.989 108.939 127.613C108.607 127.232 108.158 127.042 107.592 127.042ZM114.264 124.156V126.075H115.744V127.123H114.264V132.037C114.264 132.354 114.33 132.594 114.462 132.755C114.594 132.911 114.818 132.989 115.136 132.989C115.292 132.989 115.507 132.96 115.78 132.901V134C115.424 134.098 115.077 134.146 114.74 134.146C114.135 134.146 113.678 133.963 113.371 133.597C113.063 133.231 112.909 132.711 112.909 132.037V127.123H111.466V126.075H112.909V124.156H114.264ZM124.408 129.247C123.202 128.9 122.323 128.475 121.771 127.972C121.225 127.464 120.951 126.839 120.951 126.097C120.951 125.257 121.286 124.564 121.955 124.017C122.628 123.465 123.502 123.189 124.577 123.189C125.309 123.189 125.961 123.331 126.532 123.614C127.108 123.897 127.553 124.288 127.865 124.786C128.183 125.284 128.341 125.829 128.341 126.419H126.928C126.928 125.775 126.723 125.27 126.312 124.903C125.902 124.532 125.324 124.347 124.577 124.347C123.883 124.347 123.341 124.5 122.951 124.808C122.565 125.111 122.372 125.533 122.372 126.075C122.372 126.51 122.555 126.878 122.921 127.181C123.292 127.479 123.92 127.752 124.804 128.001C125.692 128.25 126.386 128.526 126.884 128.829C127.387 129.127 127.758 129.476 127.997 129.876C128.241 130.277 128.363 130.748 128.363 131.29C128.363 132.154 128.026 132.848 127.353 133.37C126.679 133.888 125.778 134.146 124.65 134.146C123.917 134.146 123.234 134.007 122.599 133.729C121.964 133.446 121.474 133.06 121.127 132.572C120.785 132.083 120.614 131.529 120.614 130.909H122.028C122.028 131.554 122.265 132.064 122.738 132.44C123.217 132.811 123.854 132.997 124.65 132.997C125.392 132.997 125.961 132.845 126.356 132.542C126.752 132.24 126.95 131.827 126.95 131.305C126.95 130.782 126.767 130.379 126.4 130.096C126.034 129.808 125.37 129.525 124.408 129.247ZM131.798 124.156V126.075H133.278V127.123H131.798V132.037C131.798 132.354 131.864 132.594 131.996 132.755C132.128 132.911 132.353 132.989 132.67 132.989C132.826 132.989 133.041 132.96 133.314 132.901V134C132.958 134.098 132.611 134.146 132.274 134.146C131.669 134.146 131.212 133.963 130.905 133.597C130.597 133.231 130.443 132.711 130.443 132.037V127.123H129V126.075H130.443V124.156H131.798ZM139.76 134C139.682 133.844 139.618 133.565 139.569 133.165C138.939 133.819 138.188 134.146 137.313 134.146C136.532 134.146 135.89 133.927 135.387 133.487C134.889 133.043 134.64 132.481 134.64 131.803C134.64 130.978 134.953 130.338 135.578 129.884C136.208 129.425 137.091 129.195 138.229 129.195H139.547V128.573C139.547 128.099 139.406 127.723 139.123 127.445C138.839 127.162 138.422 127.02 137.87 127.02C137.387 127.02 136.981 127.142 136.654 127.386C136.327 127.63 136.164 127.926 136.164 128.272H134.801C134.801 127.877 134.94 127.496 135.219 127.13C135.502 126.759 135.883 126.466 136.361 126.251C136.845 126.036 137.375 125.929 137.951 125.929C138.864 125.929 139.579 126.158 140.097 126.617C140.614 127.071 140.883 127.699 140.902 128.5V132.147C140.902 132.875 140.995 133.453 141.181 133.883V134H139.76ZM137.511 132.967C137.936 132.967 138.339 132.857 138.72 132.638C139.101 132.418 139.376 132.132 139.547 131.781V130.155H138.485C136.825 130.155 135.995 130.641 135.995 131.612C135.995 132.037 136.137 132.369 136.42 132.608C136.703 132.848 137.067 132.967 137.511 132.967ZM146.857 127.291C146.652 127.257 146.43 127.24 146.19 127.24C145.302 127.24 144.699 127.618 144.381 128.375V134H143.026V126.075H144.345L144.367 126.991C144.811 126.283 145.441 125.929 146.256 125.929C146.52 125.929 146.72 125.963 146.857 126.031V127.291ZM150.314 124.156V126.075H151.793V127.123H150.314V132.037C150.314 132.354 150.38 132.594 150.512 132.755C150.644 132.911 150.868 132.989 151.186 132.989C151.342 132.989 151.557 132.96 151.83 132.901V134C151.474 134.098 151.127 134.146 150.79 134.146C150.185 134.146 149.728 133.963 149.42 133.597C149.113 133.231 148.959 132.711 148.959 132.037V127.123H147.516V126.075H148.959V124.156H150.314ZM156.671 134.146C155.597 134.146 154.723 133.795 154.049 133.092C153.375 132.384 153.039 131.439 153.039 130.257V130.008C153.039 129.222 153.188 128.521 153.485 127.906C153.788 127.286 154.208 126.803 154.745 126.456C155.287 126.104 155.873 125.929 156.503 125.929C157.533 125.929 158.334 126.268 158.905 126.947C159.477 127.625 159.762 128.597 159.762 129.862V130.426H154.394C154.413 131.207 154.64 131.839 155.075 132.323C155.514 132.801 156.071 133.041 156.745 133.041C157.223 133.041 157.628 132.943 157.96 132.748C158.292 132.552 158.583 132.293 158.832 131.971L159.66 132.616C158.996 133.636 158 134.146 156.671 134.146ZM156.503 127.042C155.956 127.042 155.497 127.242 155.126 127.643C154.755 128.038 154.525 128.595 154.438 129.312H158.407V129.21C158.368 128.521 158.183 127.989 157.851 127.613C157.519 127.232 157.069 127.042 156.503 127.042ZM161.007 129.972C161.007 128.756 161.295 127.779 161.872 127.042C162.448 126.3 163.202 125.929 164.135 125.929C165.062 125.929 165.797 126.246 166.339 126.881V122.75H167.694V134H166.449L166.383 133.15C165.841 133.814 165.087 134.146 164.12 134.146C163.202 134.146 162.453 133.771 161.872 133.019C161.295 132.267 161.007 131.285 161.007 130.074V129.972ZM162.362 130.125C162.362 131.024 162.548 131.727 162.919 132.235C163.29 132.743 163.803 132.997 164.457 132.997C165.316 132.997 165.944 132.611 166.339 131.839V128.199C165.934 127.452 165.312 127.079 164.472 127.079C163.808 127.079 163.29 127.335 162.919 127.848C162.548 128.36 162.362 129.12 162.362 130.125Z" fill="url(#paint3_linear_321_2)"/>
<path d="M33.4147 42.8182L40.0287 54.2173V61H43.3135V54.2173L49.9275 42.8182H46.2077L41.7599 50.8615H41.5823L37.1345 42.8182H33.4147ZM54.2772 61.2663C58.2722 61.2663 60.8113 58.4521 60.8113 54.2351C60.8113 50.0092 58.2722 47.1861 54.2772 47.1861C50.2821 47.1861 47.7431 50.0092 47.7431 54.2351C47.7431 58.4521 50.2821 61.2663 54.2772 61.2663ZM54.2949 58.6918C52.0843 58.6918 51.0012 56.7209 51.0012 54.2262C51.0012 51.7315 52.0843 49.734 54.2949 49.734C56.47 49.734 57.5531 51.7315 57.5531 54.2262C57.5531 56.7209 56.47 58.6918 54.2949 58.6918ZM70.9804 55.2649C70.9804 57.3423 69.4978 58.3722 68.0773 58.3722C66.5326 58.3722 65.5028 57.2802 65.5028 55.549V47.3636H62.289V56.0462C62.289 59.3221 64.1533 61.1776 66.8344 61.1776C68.8763 61.1776 70.3145 60.1033 70.936 58.5763H71.078V61H74.1942V47.3636H70.9804V55.2649ZM76.2489 61H79.4627V52.9833C79.4627 51.2521 80.7678 50.027 82.5344 50.027C83.076 50.027 83.7507 50.1246 84.0259 50.2134V47.2571C83.733 47.2038 83.2269 47.1683 82.8718 47.1683C81.3093 47.1683 80.0043 48.0561 79.5071 49.6364H79.3651V47.3636H76.2489V61ZM90.0043 61H93.1648V58.8516H93.3512C93.8572 59.8459 94.9137 61.2397 97.2575 61.2397C100.471 61.2397 102.877 58.6918 102.877 54.1996C102.877 49.6541 100.4 47.1861 97.2486 47.1861C94.8427 47.1861 93.8395 48.6332 93.3512 49.6186H93.218V42.8182H90.0043V61ZM93.1559 54.1818C93.1559 51.5362 94.2923 49.8228 96.3608 49.8228C98.5004 49.8228 99.6012 51.6428 99.6012 54.1818C99.6012 56.7386 98.4826 58.603 96.3608 58.603C94.31 58.603 93.1559 56.8274 93.1559 54.1818ZM110.307 61.2663C114.302 61.2663 116.842 58.4521 116.842 54.2351C116.842 50.0092 114.302 47.1861 110.307 47.1861C106.312 47.1861 103.773 50.0092 103.773 54.2351C103.773 58.4521 106.312 61.2663 110.307 61.2663ZM110.325 58.6918C108.115 58.6918 107.032 56.7209 107.032 54.2262C107.032 51.7315 108.115 49.734 110.325 49.734C112.5 49.734 113.583 51.7315 113.583 54.2262C113.583 56.7209 112.5 58.6918 110.325 58.6918ZM118.319 61H121.533V52.9833C121.533 51.2521 122.838 50.027 124.605 50.027C125.146 50.027 125.821 50.1246 126.096 50.2134V47.2571C125.803 47.2038 125.297 47.1683 124.942 47.1683C123.38 47.1683 122.075 48.0561 121.577 49.6364H121.435V47.3636H118.319V61ZM126.981 61H130.195V47.3636H126.981V61ZM128.597 45.4283C129.618 45.4283 130.453 44.647 130.453 43.6882C130.453 42.7205 129.618 41.9393 128.597 41.9393C127.567 41.9393 126.733 42.7205 126.733 43.6882C126.733 44.647 127.567 45.4283 128.597 45.4283ZM135.464 53.0099C135.464 51.0391 136.653 49.9027 138.349 49.9027C140.009 49.9027 141.003 50.9947 141.003 52.8146V61H144.217V52.3175C144.226 49.0504 142.362 47.1861 139.547 47.1861C137.506 47.1861 136.103 48.1626 135.481 49.6808H135.322V47.3636H132.25V61H135.464V53.0099ZM152.165 66.3977C155.849 66.3977 158.566 64.7109 158.566 61.2219V47.3636H155.396V49.6186H155.219C154.73 48.6332 153.709 47.1861 151.304 47.1861C148.152 47.1861 145.675 49.6541 145.675 54.1374C145.675 58.5852 148.152 60.8047 151.295 60.8047C153.63 60.8047 154.722 59.5529 155.219 58.5497H155.378V61.1332C155.378 63.1396 154.047 63.9652 152.218 63.9652C150.283 63.9652 149.43 63.0508 149.04 62.2518L146.146 62.9531C146.731 64.8619 148.693 66.3977 152.165 66.3977ZM152.191 58.2834C150.07 58.2834 148.951 56.6321 148.951 54.1197C148.951 51.6428 150.052 49.8228 152.191 49.8228C154.26 49.8228 155.396 51.5362 155.396 54.1197C155.396 56.7209 154.242 58.2834 152.191 58.2834ZM181.265 48.9528C180.706 44.9134 177.599 42.5696 173.568 42.5696C168.819 42.5696 165.241 46.032 165.241 51.9091C165.241 57.7773 168.774 61.2486 173.568 61.2486C177.892 61.2486 180.759 58.4521 181.265 54.9808L177.945 54.9631C177.528 57.0938 175.788 58.2923 173.613 58.2923C170.665 58.2923 168.552 56.0817 168.552 51.9091C168.552 47.8075 170.647 45.5259 173.622 45.5259C175.832 45.5259 177.563 46.7777 177.945 48.9528H181.265ZM182.233 45.5792H187.852V61H191.119V45.5792H196.739V42.8182H182.233V45.5792ZM198.423 61L199.923 56.5167H206.759L208.269 61H211.784L205.374 42.8182H201.308L194.907 61H198.423ZM200.811 53.8711L203.27 46.5469H203.412L205.872 53.8711H200.811Z" fill="url(#paint4_linear_321_2)"/>
<g clip-path="url(#clip0_321_2)">
<path d="M203.099 115.379L197.353 113.772L204.891 110.498C205.142 110.388 205.295 110.137 205.276 109.864C205.257 109.59 205.066 109.364 204.802 109.29L197.308 107.193C196.963 107.097 196.605 107.298 196.509 107.643C196.412 107.988 196.614 108.346 196.959 108.442L202.704 110.05L195.153 113.371C194.902 113.481 194.756 113.708 194.775 113.982C194.794 114.255 194.991 114.458 195.255 114.532L202.75 116.628C203.094 116.725 203.452 116.523 203.549 116.178C203.645 115.833 203.444 115.476 203.099 115.379Z" fill="url(#paint5_linear_321_2)"/>
<path d="M214.088 104.985L208.342 103.377L215.88 100.103C216.131 99.9931 216.284 99.7425 216.265 99.4691C216.246 99.1957 216.055 98.9692 215.791 98.8954L208.297 96.7988C207.952 96.7023 207.594 96.9036 207.498 97.2486C207.401 97.5935 207.603 97.9513 207.947 98.0478L213.693 99.6552L206.142 102.977C205.891 103.087 205.744 103.313 205.764 103.587C205.783 103.86 205.98 104.063 206.244 104.137L213.738 106.234C214.083 106.33 214.441 106.129 214.537 105.784C214.634 105.439 214.433 105.081 214.088 104.985Z" fill="url(#paint6_linear_321_2)"/>
<path d="M232.251 99.9652L223.454 97.5041L234.742 92.5857C234.993 92.4757 235.146 92.2251 235.127 91.9517C235.108 91.6783 234.917 91.4519 234.653 91.378L224.107 88.4277C223.763 88.3312 223.405 88.5326 223.308 88.8775C223.212 89.2224 223.413 89.5803 223.758 89.6768L232.555 92.1379L221.254 97.1036C221.003 97.2136 220.856 97.4406 220.875 97.7139C220.895 97.9874 221.092 98.1901 221.356 98.2639L231.901 101.214C232.246 101.311 232.604 101.109 232.701 100.764C232.797 100.42 232.596 100.062 232.251 99.9652Z" fill="url(#paint7_linear_321_2)"/>
</g>
<rect x="75" y="91" width="111" height="4" rx="2" fill="url(#paint8_linear_321_2)"/>
<rect x="58" y="76" width="145" height="10" rx="5" fill="url(#paint9_linear_321_2)"/>
<defs>
<linearGradient id="paint0_linear_321_2" x1="0" y1="0" x2="239.008" y2="219.055" gradientUnits="userSpaceOnUse">
<stop stop-color="#7E64C7"/>
<stop offset="1" stop-color="#210869"/>
</linearGradient>
<linearGradient id="paint1_linear_321_2" x1="96" y1="164" x2="96.0451" y2="166.295" gradientUnits="userSpaceOnUse">
<stop stop-color="#7E64C7"/>
<stop offset="1" stop-color="#210869"/>
</linearGradient>
<linearGradient id="paint2_linear_321_2" x1="72" y1="113" x2="95.7323" y2="177.772" gradientUnits="userSpaceOnUse">
<stop stop-color="#7E64C7"/>
<stop offset="1" stop-color="#210869"/>
</linearGradient>
<linearGradient id="paint3_linear_321_2" x1="87" y1="120" x2="97.6873" y2="158.347" gradientUnits="userSpaceOnUse">
<stop stop-color="#7E64C7"/>
<stop offset="1" stop-color="#210869"/>
</linearGradient>
<linearGradient id="paint4_linear_321_2" x1="12" y1="37" x2="24.3702" y2="103.577" gradientUnits="userSpaceOnUse">
<stop stop-color="#7E64C7"/>
<stop offset="1" stop-color="#210869"/>
</linearGradient>
<linearGradient id="paint5_linear_321_2" x1="196.684" y1="107.019" x2="202.99" y2="116.655" gradientUnits="userSpaceOnUse">
<stop stop-color="#7E64C7"/>
<stop offset="1" stop-color="#210869"/>
</linearGradient>
<linearGradient id="paint6_linear_321_2" x1="207.672" y1="96.624" x2="213.979" y2="106.26" gradientUnits="userSpaceOnUse">
<stop stop-color="#7E64C7"/>
<stop offset="1" stop-color="#210869"/>
</linearGradient>
<linearGradient id="paint7_linear_321_2" x1="223.483" y1="88.2529" x2="231.925" y2="101.243" gradientUnits="userSpaceOnUse">
<stop stop-color="#7E64C7"/>
<stop offset="1" stop-color="#210869"/>
</linearGradient>
<linearGradient id="paint8_linear_321_2" x1="75" y1="93" x2="184.8" y2="93" gradientUnits="userSpaceOnUse">
<stop stop-color="#7F65C7"/>
<stop offset="1" stop-color="#CBB8FF"/>
</linearGradient>
<linearGradient id="paint9_linear_321_2" x1="58" y1="81" x2="201.432" y2="81" gradientUnits="userSpaceOnUse">
<stop stop-color="#886ADB"/>
<stop offset="1" stop-color="#CCC0F1"/>
</linearGradient>
<clipPath id="clip0_321_2">
<rect width="33" height="33" fill="white" transform="translate(203.51 82.6191) rotate(15.6298)"/>
</clipPath>
</defs>
</svg>
