<svg width="295" height="258" viewBox="0 0 295 258" fill="none" xmlns="http://www.w3.org/2000/svg">
<rect x="0.5" y="49.5" width="294" height="208" rx="23.5" stroke="url(#paint0_linear_322_2)"/>
<line x1="111.315" y1="199.685" x2="178.085" y2="199.685" stroke="url(#paint1_linear_322_2)" stroke-width="2.63" stroke-linecap="round"/>
<line x1="111.315" y1="208.685" x2="178.085" y2="208.685" stroke="url(#paint2_linear_322_2)" stroke-width="2.63" stroke-linecap="round"/>
<path d="M140.465 19.2507C140.171 20.121 139.874 20.977 139.574 21.8186C139.274 22.6603 138.956 23.6256 138.619 24.7145C138.305 25.7687 137.938 26.9987 137.518 28.4043C137.099 29.8099 136.623 31.5119 136.09 33.5101C135.953 33.9882 135.797 34.3804 135.622 34.6867C135.448 34.993 135.203 35.1796 134.889 35.2466C134.459 35.3379 134.091 35.2964 133.785 35.1221C133.501 34.9131 133.243 34.6838 133.01 34.434C131.731 33.0603 130.429 31.5118 129.106 29.7885C127.782 28.0652 126.639 26.3484 125.677 24.6379C125.589 24.507 125.556 24.3495 125.577 24.1656C125.62 23.9469 125.707 23.7938 125.838 23.7061C126.094 23.5021 126.463 23.4087 126.945 23.4258C127.319 23.496 127.718 23.6806 128.14 23.9797C128.563 24.2788 128.917 24.6075 129.203 24.9657C129.46 25.33 129.757 25.7454 130.096 26.212C130.434 26.6786 130.796 27.1851 131.182 27.7315C131.59 28.2432 131.998 28.7549 132.406 29.2666C132.814 29.7783 133.209 30.2328 133.593 30.6299C133.897 29.6677 134.218 28.6421 134.555 27.5531C134.914 26.4295 135.274 25.3059 135.633 24.1822C135.987 23.0299 136.35 21.9206 136.721 20.8542C137.122 19.7817 137.529 18.8125 137.943 17.9465C138.044 17.7157 138.22 17.5586 138.472 17.4752C138.723 17.3918 139.031 17.4311 139.394 17.5932C140.226 17.985 140.582 18.5375 140.465 19.2507ZM151.968 19.6778C151.844 19.3751 151.723 19.0867 151.605 18.8126C151.487 18.5385 151.304 18.3828 151.057 18.3456C150.54 18.3059 150.022 18.4012 149.502 18.6313C148.982 18.8614 148.521 19.154 148.118 19.509C147.708 19.8353 147.38 20.1894 147.132 20.5713C146.878 20.9245 146.761 21.2186 146.781 21.4537C146.786 21.9014 146.989 22.2922 147.389 22.626C147.789 22.9598 148.332 23.2633 149.019 23.5363C150.148 23.9245 151.324 24.3178 152.546 24.7164C153.767 25.115 154.82 25.5644 155.705 26.0646C156.589 26.5648 157.245 27.1883 157.673 27.9351C158.124 28.6472 158.255 29.5468 158.067 30.634C157.917 31.4738 157.464 32.2284 156.708 32.8976C155.953 33.5668 155.09 34.154 154.121 34.6594C153.145 35.1361 152.154 35.5412 151.148 35.8748C150.135 36.1797 149.271 36.4082 148.556 36.5604C148.384 36.5969 148.157 36.5852 147.875 36.5255C147.616 36.431 147.353 36.3223 147.087 36.1992C146.851 36.07 146.628 35.9378 146.42 35.8026C146.234 35.6326 146.126 35.476 146.096 35.3329C145.986 34.8176 146.139 34.4111 146.554 34.1133C146.97 33.8156 147.421 33.615 147.908 33.5116C148.595 33.3655 149.318 33.1817 150.079 32.9602C150.863 32.7039 151.597 32.4282 152.282 32.1329C152.961 31.809 153.56 31.4574 154.078 31.0781C154.595 30.6987 154.926 30.2843 155.07 29.8349C155.197 29.4488 154.983 29.0754 154.428 28.7147C153.895 28.3193 153.202 27.9431 152.348 27.586C151.523 27.2228 150.629 26.8892 149.667 26.5851C148.733 26.2749 147.923 25.9833 147.237 25.7103C146.55 25.4373 145.935 25.0744 145.39 24.6218C144.839 24.1405 144.417 23.497 144.127 22.6911C143.94 21.9529 143.945 21.2038 144.142 20.4437C144.34 19.6836 144.656 18.9881 145.09 18.3572C145.547 17.6916 146.1 17.1253 146.749 16.6583C147.398 16.1913 148.08 15.8817 148.795 15.7296C150.039 15.5252 151.128 15.6527 152.063 16.1121C152.993 16.5429 153.657 17.3443 154.055 18.5162C154.141 18.9169 154.139 19.2614 154.051 19.5494C153.991 19.8314 153.81 20.0345 153.507 20.1587C153.118 20.3011 152.78 20.3282 152.492 20.2398C152.226 20.1167 152.052 19.9294 151.968 19.6778Z" fill="url(#paint3_linear_322_2)"/>
<rect x="44" y="133" width="196" height="48" rx="24" stroke="url(#paint4_linear_322_2)" stroke-width="2"/>
<rect x="126" y="141" width="105" height="32" rx="16" fill="#886ADB"/>
<rect x="40.42" y="126.42" width="61.16" height="61.16" rx="30.58" stroke="#CBBDF1" stroke-width="0.84"/>
<rect x="49.1627" y="134.369" width="44.4677" height="44.4677" rx="22.2338" stroke="#CBBDF1" stroke-width="0.84"/>
<rect x="56.3184" y="142.318" width="29.3651" height="29.3651" rx="14.6826" stroke="#CBBDF1" stroke-width="0.84"/>
<g filter="url(#filter0_d_322_2)">
<path d="M69.4976 143.855C65.711 141.691 61 144.426 61 148.787V162.784C61 167.145 65.711 169.879 69.4976 167.716L81.7482 160.717C85.5647 158.537 85.5647 153.034 81.7482 150.854L69.4976 143.855Z" fill="#886ADB"/>
</g>
<path d="M89.0676 87.8182H85.4544L91.8553 106H95.9213L102.331 87.8182H98.709L93.986 102.129H93.7995L89.0676 87.8182ZM107.817 106.266C111.812 106.266 114.351 103.452 114.351 99.2351C114.351 95.0092 111.812 92.1861 107.817 92.1861C103.822 92.1861 101.283 95.0092 101.283 99.2351C101.283 103.452 103.822 106.266 107.817 106.266ZM107.835 103.692C105.624 103.692 104.541 101.721 104.541 99.2262C104.541 96.7315 105.624 94.734 107.835 94.734C110.01 94.734 111.093 96.7315 111.093 99.2262C111.093 101.721 110.01 103.692 107.835 103.692ZM121.777 106.266C125.204 106.266 127.388 104.233 127.619 101.339H124.547C124.272 102.804 123.215 103.647 121.804 103.647C119.797 103.647 118.501 101.969 118.501 99.1818C118.501 96.4297 119.824 94.7784 121.804 94.7784C123.349 94.7784 124.298 95.7727 124.547 97.0866H127.619C127.397 94.1303 125.089 92.1861 121.759 92.1861C117.764 92.1861 115.243 95.0714 115.243 99.2351C115.243 103.363 117.702 106.266 121.777 106.266ZM132.932 106.275C135.071 106.275 136.35 105.272 136.936 104.127H137.042V106H140.132V96.8736C140.132 93.2692 137.193 92.1861 134.592 92.1861C131.724 92.1861 129.523 93.4645 128.812 95.9503L131.813 96.3764C132.133 95.4442 133.038 94.6452 134.61 94.6452C136.101 94.6452 136.918 95.4087 136.918 96.7493V96.8026C136.918 97.7259 135.95 97.7702 133.544 98.0277C130.899 98.3118 128.369 99.1019 128.369 102.174C128.369 104.855 130.331 106.275 132.932 106.275ZM133.766 103.914C132.426 103.914 131.467 103.301 131.467 102.12C131.467 100.886 132.541 100.371 133.979 100.167C134.823 100.052 136.509 99.8388 136.927 99.5014V101.108C136.927 102.626 135.702 103.914 133.766 103.914ZM145.327 87.8182H142.113V106H145.327V87.8182ZM168.038 93.9528C167.479 89.9134 164.371 87.5696 160.341 87.5696C155.591 87.5696 152.013 91.032 152.013 96.9091C152.013 102.777 155.547 106.249 160.341 106.249C164.664 106.249 167.532 103.452 168.038 99.9808L164.718 99.9631C164.3 102.094 162.56 103.292 160.385 103.292C157.438 103.292 155.325 101.082 155.325 96.9091C155.325 92.8075 157.42 90.5259 160.394 90.5259C162.605 90.5259 164.336 91.7777 164.718 93.9528H168.038ZM169.005 90.5792H174.625V106H177.892V90.5792H183.511V87.8182H169.005V90.5792ZM185.196 106L186.696 101.517H193.532L195.041 106H198.557L192.147 87.8182H188.081L181.68 106H185.196ZM187.584 98.8711L190.043 91.5469H190.185L192.644 98.8711H187.584Z" fill="url(#paint5_linear_322_2)"/>
<path d="M148.333 160.601C147.972 161.119 147.466 161.507 146.817 161.766C146.172 162.02 145.42 162.146 144.561 162.146C143.692 162.146 142.92 161.944 142.247 161.539C141.573 161.128 141.05 160.547 140.679 159.795C140.313 159.043 140.125 158.172 140.115 157.181V156.25C140.115 154.644 140.489 153.399 141.236 152.515C141.988 151.631 143.042 151.189 144.4 151.189C145.513 151.189 146.409 151.475 147.088 152.046C147.767 152.613 148.182 153.418 148.333 154.463H146.927C146.663 153.052 145.823 152.347 144.407 152.347C143.465 152.347 142.75 152.679 142.261 153.343C141.778 154.002 141.534 154.959 141.529 156.214V157.085C141.529 158.282 141.802 159.234 142.349 159.942C142.896 160.645 143.636 160.997 144.568 160.997C145.096 160.997 145.557 160.938 145.953 160.821C146.348 160.704 146.675 160.506 146.934 160.228V157.833H144.466V156.69H148.333V160.601ZM153.76 162.146C152.686 162.146 151.812 161.795 151.138 161.092C150.464 160.384 150.127 159.439 150.127 158.257V158.008C150.127 157.222 150.276 156.521 150.574 155.906C150.877 155.286 151.297 154.803 151.834 154.456C152.376 154.104 152.962 153.929 153.592 153.929C154.622 153.929 155.423 154.268 155.994 154.947C156.565 155.625 156.851 156.597 156.851 157.862V158.426H151.482C151.502 159.207 151.729 159.839 152.164 160.323C152.603 160.801 153.16 161.041 153.833 161.041C154.312 161.041 154.717 160.943 155.049 160.748C155.381 160.552 155.672 160.293 155.921 159.971L156.749 160.616C156.084 161.636 155.088 162.146 153.76 162.146ZM153.592 155.042C153.045 155.042 152.586 155.242 152.215 155.643C151.844 156.038 151.614 156.595 151.526 157.312H155.496V157.21C155.457 156.521 155.271 155.989 154.939 155.613C154.607 155.232 154.158 155.042 153.592 155.042ZM160.264 152.156V154.075H161.744V155.123H160.264V160.037C160.264 160.354 160.33 160.594 160.462 160.755C160.594 160.911 160.818 160.989 161.136 160.989C161.292 160.989 161.507 160.96 161.78 160.901V162C161.424 162.098 161.077 162.146 160.74 162.146C160.135 162.146 159.678 161.963 159.371 161.597C159.063 161.231 158.909 160.711 158.909 160.037V155.123H157.466V154.075H158.909V152.156H160.264ZM170.408 157.247C169.202 156.9 168.323 156.475 167.771 155.972C167.225 155.464 166.951 154.839 166.951 154.097C166.951 153.257 167.286 152.564 167.955 152.017C168.628 151.465 169.502 151.189 170.577 151.189C171.309 151.189 171.961 151.331 172.532 151.614C173.108 151.897 173.553 152.288 173.865 152.786C174.183 153.284 174.341 153.829 174.341 154.419H172.928C172.928 153.775 172.723 153.27 172.312 152.903C171.902 152.532 171.324 152.347 170.577 152.347C169.883 152.347 169.341 152.5 168.951 152.808C168.565 153.111 168.372 153.533 168.372 154.075C168.372 154.51 168.555 154.878 168.921 155.181C169.292 155.479 169.92 155.752 170.804 156.001C171.692 156.25 172.386 156.526 172.884 156.829C173.387 157.127 173.758 157.476 173.997 157.876C174.241 158.277 174.363 158.748 174.363 159.29C174.363 160.154 174.026 160.848 173.353 161.37C172.679 161.888 171.778 162.146 170.65 162.146C169.917 162.146 169.234 162.007 168.599 161.729C167.964 161.446 167.474 161.06 167.127 160.572C166.785 160.083 166.614 159.529 166.614 158.909H168.028C168.028 159.554 168.265 160.064 168.738 160.44C169.217 160.811 169.854 160.997 170.65 160.997C171.392 160.997 171.961 160.845 172.356 160.542C172.752 160.24 172.95 159.827 172.95 159.305C172.95 158.782 172.767 158.379 172.4 158.096C172.034 157.808 171.37 157.525 170.408 157.247ZM177.798 152.156V154.075H179.278V155.123H177.798V160.037C177.798 160.354 177.864 160.594 177.996 160.755C178.128 160.911 178.353 160.989 178.67 160.989C178.826 160.989 179.041 160.96 179.314 160.901V162C178.958 162.098 178.611 162.146 178.274 162.146C177.669 162.146 177.212 161.963 176.905 161.597C176.597 161.231 176.443 160.711 176.443 160.037V155.123H175V154.075H176.443V152.156H177.798ZM185.76 162C185.682 161.844 185.618 161.565 185.569 161.165C184.939 161.819 184.188 162.146 183.313 162.146C182.532 162.146 181.89 161.927 181.387 161.487C180.889 161.043 180.64 160.481 180.64 159.803C180.64 158.978 180.953 158.338 181.578 157.884C182.208 157.425 183.091 157.195 184.229 157.195H185.547V156.573C185.547 156.099 185.406 155.723 185.123 155.445C184.839 155.162 184.422 155.02 183.87 155.02C183.387 155.02 182.981 155.142 182.654 155.386C182.327 155.63 182.164 155.926 182.164 156.272H180.801C180.801 155.877 180.94 155.496 181.219 155.13C181.502 154.759 181.883 154.466 182.361 154.251C182.845 154.036 183.375 153.929 183.951 153.929C184.864 153.929 185.579 154.158 186.097 154.617C186.614 155.071 186.883 155.699 186.902 156.5V160.147C186.902 160.875 186.995 161.453 187.181 161.883V162H185.76ZM183.511 160.967C183.936 160.967 184.339 160.857 184.72 160.638C185.101 160.418 185.376 160.132 185.547 159.781V158.155H184.485C182.825 158.155 181.995 158.641 181.995 159.612C181.995 160.037 182.137 160.369 182.42 160.608C182.703 160.848 183.067 160.967 183.511 160.967ZM192.857 155.291C192.652 155.257 192.43 155.24 192.19 155.24C191.302 155.24 190.699 155.618 190.381 156.375V162H189.026V154.075H190.345L190.367 154.991C190.811 154.283 191.441 153.929 192.256 153.929C192.52 153.929 192.72 153.963 192.857 154.031V155.291ZM196.314 152.156V154.075H197.793V155.123H196.314V160.037C196.314 160.354 196.38 160.594 196.512 160.755C196.644 160.911 196.868 160.989 197.186 160.989C197.342 160.989 197.557 160.96 197.83 160.901V162C197.474 162.098 197.127 162.146 196.79 162.146C196.185 162.146 195.728 161.963 195.42 161.597C195.113 161.231 194.959 160.711 194.959 160.037V155.123H193.516V154.075H194.959V152.156H196.314ZM202.671 162.146C201.597 162.146 200.723 161.795 200.049 161.092C199.375 160.384 199.039 159.439 199.039 158.257V158.008C199.039 157.222 199.188 156.521 199.485 155.906C199.788 155.286 200.208 154.803 200.745 154.456C201.287 154.104 201.873 153.929 202.503 153.929C203.533 153.929 204.334 154.268 204.905 154.947C205.477 155.625 205.762 156.597 205.762 157.862V158.426H200.394C200.413 159.207 200.64 159.839 201.075 160.323C201.514 160.801 202.071 161.041 202.745 161.041C203.223 161.041 203.628 160.943 203.96 160.748C204.292 160.552 204.583 160.293 204.832 159.971L205.66 160.616C204.996 161.636 204 162.146 202.671 162.146ZM202.503 155.042C201.956 155.042 201.497 155.242 201.126 155.643C200.755 156.038 200.525 156.595 200.438 157.312H204.407V157.21C204.368 156.521 204.183 155.989 203.851 155.613C203.519 155.232 203.069 155.042 202.503 155.042ZM207.007 157.972C207.007 156.756 207.295 155.779 207.872 155.042C208.448 154.3 209.202 153.929 210.135 153.929C211.062 153.929 211.797 154.246 212.339 154.881V150.75H213.694V162H212.449L212.383 161.15C211.841 161.814 211.087 162.146 210.12 162.146C209.202 162.146 208.453 161.771 207.872 161.019C207.295 160.267 207.007 159.285 207.007 158.074V157.972ZM208.362 158.125C208.362 159.024 208.548 159.727 208.919 160.235C209.29 160.743 209.803 160.997 210.457 160.997C211.316 160.997 211.944 160.611 212.339 159.839V156.199C211.934 155.452 211.312 155.079 210.472 155.079C209.808 155.079 209.29 155.335 208.919 155.848C208.548 156.36 208.362 157.12 208.362 158.125Z" fill="#EEEAFA"/>
<defs>
<filter id="filter0_d_322_2" x="42.8495" y="121.318" width="76.8517" height="78.6154" filterUnits="userSpaceOnUse" color-interpolation-filters="sRGB">
<feFlood flood-opacity="0" result="BackgroundImageFix"/>
<feColorMatrix in="SourceAlpha" type="matrix" values="0 0 0 0 0 0 0 0 0 0 0 0 0 0 0 0 0 0 127 0" result="hardAlpha"/>
<feOffset dx="8.47022" dy="4.84013"/>
<feGaussianBlur stdDeviation="13.3103"/>
<feComposite in2="hardAlpha" operator="out"/>
<feColorMatrix type="matrix" values="0 0 0 0 0.14068 0 0 0 0 0.0795486 0 0 0 0 0.329167 0 0 0 0.28 0"/>
<feBlend mode="normal" in2="BackgroundImageFix" result="effect1_dropShadow_322_2"/>
<feBlend mode="normal" in="SourceGraphic" in2="effect1_dropShadow_322_2" result="shape"/>
</filter>
<linearGradient id="paint0_linear_322_2" x1="0" y1="49" x2="239.767" y2="297.378" gradientUnits="userSpaceOnUse">
<stop stop-color="#7E64C7"/>
<stop offset="1" stop-color="#210869"/>
</linearGradient>
<linearGradient id="paint1_linear_322_2" x1="110" y1="201" x2="110.045" y2="203.295" gradientUnits="userSpaceOnUse">
<stop stop-color="#7E64C7"/>
<stop offset="1" stop-color="#210869"/>
</linearGradient>
<linearGradient id="paint2_linear_322_2" x1="110" y1="210" x2="110.045" y2="212.295" gradientUnits="userSpaceOnUse">
<stop stop-color="#7E64C7"/>
<stop offset="1" stop-color="#210869"/>
</linearGradient>
<linearGradient id="paint3_linear_322_2" x1="109" y1="12.0586" x2="167.439" y2="49.5902" gradientUnits="userSpaceOnUse">
<stop stop-color="#7E64C7"/>
<stop offset="1" stop-color="#210869"/>
</linearGradient>
<linearGradient id="paint4_linear_322_2" x1="43" y1="132" x2="78.3165" y2="234.641" gradientUnits="userSpaceOnUse">
<stop stop-color="#7E64C7"/>
<stop offset="1" stop-color="#210869"/>
</linearGradient>
<linearGradient id="paint5_linear_322_2" x1="32" y1="82" x2="44.3702" y2="148.577" gradientUnits="userSpaceOnUse">
<stop stop-color="#7E64C7"/>
<stop offset="1" stop-color="#210869"/>
</linearGradient>
</defs>
</svg>
